<svg xmlns="http://www.w3.org/2000/svg" width="36.892" height="39.8" viewBox="0 0 36.892 39.8">
  <g id="bag-check-outline" transform="translate(1 1)">
    <path id="Path_9" data-name="Path 9" d="M203.631,264l-8.142,10.177L192,270.1" transform="translate(-180.369 -244.373)" fill="none" stroke="#4d95e9" stroke-linecap="round" stroke-linejoin="round" stroke-width="2"/>
    <path id="Path_10" data-name="Path 10" d="M65.454,59.631A1.454,1.454,0,0,0,64,61.085V80.711A5.171,5.171,0,0,0,69.088,85.8H93.8a5.073,5.073,0,0,0,5.088-4.975V61.085a1.454,1.454,0,0,0-1.454-1.454Zm7.269,0V56.723A8.723,8.723,0,0,1,81.446,48h0a8.723,8.723,0,0,1,8.723,8.723v2.908" transform="translate(-64 -48)" fill="none" stroke="#4d95e9" stroke-linecap="round" stroke-linejoin="round" stroke-width="2"/>
  </g>
</svg>
