<svg xmlns="http://www.w3.org/2000/svg" width="39.8" height="39.8" viewBox="0 0 39.8 39.8">
  <g id="earth-outline" transform="translate(1 0.976)">
    <path id="Path_14" data-name="Path 14" d="M85.8,66.9A18.9,18.9,0,1,0,66.9,85.8,18.9,18.9,0,0,0,85.8,66.9Z" transform="translate(-48 -47.976)" fill="none" stroke="#4d95e9" stroke-miterlimit="10" stroke-width="2"/>
    <path id="Path_15" data-name="Path 15" d="M96.115,59.04c-1.459.009-1.316,2.7-3.134,1.431-.675-.471-1.09-1.155-1.938-1.363a5.462,5.462,0,0,0-2.231.134,4.349,4.349,0,0,0-2.448.838c-.61.606-.932,1.419-1.581,2.029-1.255,1.181-1.785,2.471-.972,4.141a4.251,4.251,0,0,0,4.18,2.363c1.733-.115,3.533-1.12,3.483,1.4a6.373,6.373,0,0,0,.442,2.336,9.068,9.068,0,0,1,.294,2.291,10.841,10.841,0,0,0,1.109,4.422l1.363-1.923a3.9,3.9,0,0,0,.6-.852,7.006,7.006,0,0,0-.177-1.908c-.034-.557-.017-1.121-.1-1.678-.12-.781-.582-1.512-.645-2.283-.117-1.437.145-2.583-.961-3.785a4.506,4.506,0,0,0-4.132-1.2c-.754.118-3.79.6-2.571-1.12.241-.339.661-.617.932-.94a7.471,7.471,0,0,1,.716-1.016,3.747,3.747,0,0,1,1.908-.359c.363.112.742.636,1.058.869a4.533,4.533,0,0,0,1.982.851c1.241.182,3.836-.54,3.816-2.132a9.061,9.061,0,0,0-.992-2.541Zm-14.368,13.1c-.484-2.039-3.255-2.72-4.749-3.826-.859-.636-1.623-1.618-2.75-1.7a7.5,7.5,0,0,1-1.47-.058,3.381,3.381,0,0,0-1.347-.31c-.94.124-1.534,1.129-2.544.992a3.1,3.1,0,0,1-2.164-2.163c-.28-1.174.649-1.555,1.644-1.659a2.832,2.832,0,0,1,1.28.061c.525.2.773.71,1.245.97.884.484,1.063-.29.928-1.075-.2-1.176-.439-1.656.61-2.464.727-.558,1.348-.961,1.232-1.964-.069-.589-.392-.855-.091-1.441a3.77,3.77,0,0,1,1.262-1.115c1.053-.687,4.511-.636,3.1-2.559-.415-.564-1.181-1.573-1.908-1.711-.909-.172-1.312.842-1.945,1.289-.654.463-1.928.988-2.583.273-.881-.962.584-1.278.909-1.95s-.751-1.941-1.328-2.263L68.367,52.5a3.773,3.773,0,0,0,.758,2.895c.539.693,1.4.916,1.436,1.863a2.333,2.333,0,0,1-.7,2.013c-.257.273-.439.66-.7.915-.321.312-.2.216-.7.3a25.742,25.742,0,0,0-2.652.655c-1.516.419-1.656-2.057-2.346-3.029l-2.272,1.835c-.025.3.373.854.481,1.181.621,1.869,1.873,3.315,2.681,5.1.851,1.894,3.138,1.368,4.147,3.028.9,1.472-.061,3.336.61,4.877.487,1.119,1.636,1.363,2.428,2.181.81.826.792,1.956.916,3.031a27.732,27.732,0,0,0,.677,3.751,3.519,3.519,0,0,0,.5,1.341c.2.242.886.45.609.53.387.064,1.077.425,1.4.16.425-.349.312-1.423.385-1.908a7.8,7.8,0,0,1,1.92-3.939c.964-1.067,2.285-1.789,3.1-3a5.4,5.4,0,0,0,.7-4.151ZM78.713,74.53c-.545.973-1.759,1.625-2.54,2.4-.212.21-.662.937-.928.78-.19-.113-.254-1.056-.324-1.272a5.558,5.558,0,0,0-1.973-2.721c-.284-.215-.99-.5-1.152-.791-.182-.321-.018-1.078-.012-1.427a9.8,9.8,0,0,1-.1-1.817c.145-.533-.134-.212.343-.317a7.679,7.679,0,0,1,1.6.192,2.731,2.731,0,0,1,1.165.727,22.466,22.466,0,0,0,3.326,2.1A1.352,1.352,0,0,1,78.713,74.53ZM72.389,49.494c.431.421.836.919,1.478.96.608.041,1.181-.288,1.712.125.589.454,1.013,1.029,1.795,1.171a1.506,1.506,0,0,0,1.744-1.078,8.606,8.606,0,0,0-.234-2.278c0-.1.055-.559-.015-.636-.053-.058-.492.007-.56.009q-.739.022-1.474.1a18.818,18.818,0,0,0-5.2,1.331,2.72,2.72,0,0,0,.75.293Zm15.623,5.1c.771,0,1.555-.345,1.306-1.238-.209-.748-.565-1.559-1.432-1.156-.552.256-1.333.909-1.4,1.556-.074.734,1.01.838,1.524.838ZM87.4,58.5a2.137,2.137,0,0,0,2.551-.423c.464-.527.738-1.442,1.573-1.441a1.4,1.4,0,0,1,.983.4c.345.357.277.692.351,1.139.164,1,1.241.057,1.522-.332a1.314,1.314,0,0,0,.345-.96c-.076-.308-.436-.636-.6-.919a9.922,9.922,0,0,0-1.551-2.43,1.423,1.423,0,0,0-2.14.1,8.142,8.142,0,0,0-1.489,1.64,1.436,1.436,0,0,1-1.049.81,2.021,2.021,0,0,0-.84.28C86.4,56.885,86.773,58.129,87.4,58.5Z" transform="translate(-59.99 -47.735)" fill="#4e95e8"/>
  </g>
</svg>
