<svg xmlns="http://www.w3.org/2000/svg" width="28.176" height="39.8" viewBox="0 0 28.176 39.8">
  <g id="hourglass-outline" transform="translate(1.003 1)">
    <path id="Path_16" data-name="Path 16" d="M115.058,85.8H135.12a2.955,2.955,0,0,0,3.037-3.186c-1.249-10.989-8.706-10.808-8.706-15.714s7.552-4.634,8.7-15.714A2.961,2.961,0,0,0,135.12,48H115.058a2.963,2.963,0,0,0-3.036,3.186c1.153,11.08,8.7,10.717,8.7,15.714s-7.456,4.725-8.7,15.714A2.954,2.954,0,0,0,115.058,85.8Z" transform="translate(-112.005 -48)" fill="none" stroke="#4d95e9" stroke-linecap="round" stroke-linejoin="round" stroke-width="2"/>
    <path id="Path_17" data-name="Path 17" d="M171.215,170.169H155.389c-1.417,0-1.817-1.636-.823-2.65,2.406-2.439,7.263-4.185,7.263-6.982v-9.268c0-1.8-3.453-3.18-5.589-6.106-.353-.482-.317-1.163.579-1.163h12.969a.689.689,0,0,1,.582,1.159c-2.105,2.93-5.633,4.3-5.633,6.111v9.268c0,2.774,5.062,4.271,7.306,6.985C172.946,168.616,172.63,170.169,171.215,170.169Z" transform="translate(-150.198 -135.277)" fill="#4d95e8"/>
  </g>
</svg>
