<svg xmlns="http://www.w3.org/2000/svg" width="53.276" height="53.276" viewBox="0 0 53.276 53.276">
  <g id="Group_7" data-name="Group 7" transform="translate(110.094 -0.275)">
    <circle id="Ellipse_1" data-name="Ellipse 1" cx="26.638" cy="26.638" r="26.638" transform="translate(-110.094 0.275)" fill="#f74f4f"/>
    <g id="trash-outline" transform="translate(-92.978 15.661)">
      <path id="Path_3" data-name="Path 3" d="M112,112l1.082,17.312a1.738,1.738,0,0,0,1.731,1.731h9.954a1.742,1.742,0,0,0,1.731-1.731L127.581,112" transform="translate(-110.269 -108.538)" fill="none" stroke="#fff" stroke-linecap="round" stroke-linejoin="round" stroke-width="1.5"/>
      <path id="Path_4" data-name="Path 4" d="M80,112H99.043" transform="translate(-80 -108.538)" stroke="#fff" stroke-linecap="round" stroke-miterlimit="10" stroke-width="1.5"/>
      <path id="Path_5" data-name="Path 5" d="M184.433,51.462V49.3h0a1.295,1.295,0,0,1,1.3-1.3h4.328a1.295,1.295,0,0,1,1.3,1.3h0v2.164M187.9,54.925V67.043M184,54.925l.433,12.118m7.358-12.118-.433,12.118" transform="translate(-178.374 -48)" fill="none" stroke="#fff" stroke-linecap="round" stroke-linejoin="round" stroke-width="1.5"/>
    </g>
  </g>
</svg>
